<?xml version="1.0"?>
<svg version="1.1" xmlns="http://www.w3.org/2000/svg" width="296px" height="52px" style=""><path fill="#" d="M74.06,41.39c0.03,0.51-0.12,0.81-0.69,0.81l-2.43,0c-0.63,0-0.75-0.3-0.78-0.99l-0.42-12.18l-0.06,0l-5.1,12.63c-0.18,0.48-0.48,0.54-0.81,0.54l-1.05,0c-0.45,0-0.72-0.09-0.93-0.57l-5.67-12.6l-0.06,0l-0.27,12.42c0,0.66-0.27,0.75-0.81,0.75l-2.04,0c-0.57,0-0.81-0.21-0.78-0.78l0.75-19.17c0.03-0.63,0.24-0.81,0.72-0.81l1.77,0c0.6,0,0.81,0.21,1.02,0.66l6.93,14.82l0.06,0l6.33-14.82c0.18-0.45,0.42-0.66,0.96-0.66l1.77,0c0.48,0,0.66,0.18,0.69,0.66z M93.995,41.63c0,0.36-0.24,0.57-0.6,0.57l-1.44,0c-1.56,0-2.25-0.75-2.46-1.77l-0.06,0c-0.75,1.11-2.7,2.13-4.35,2.13c-4.23,0-6.15-3.48-6.15-7.38c0-5.19,3.12-7.92,6.48-7.92c1.59,0,3.09,0.72,3.84,1.74l0.06-0.81c0.03-0.33,0.27-0.54,0.63-0.54l2.1,0c0.39,0,0.63,0.21,0.63,0.66l0,10.41c0,0.42,0.06,0.72,0.18,0.87c0.09,0.09,0.21,0.12,0.36,0.12l0.24,0c0.36,0,0.54,0.12,0.54,0.51l0,1.41z M89.045,37.55l0-5.79c-0.6-0.87-1.83-1.53-2.97-1.53c-1.83,0-3.39,1.56-3.39,4.71c0,2.52,0.96,4.65,3.18,4.65c1.47,0,2.73-1.11,3.18-2.04z M107.45,41.3c0,0.3-0.15,0.45-0.45,0.57c-0.93,0.39-2.16,0.69-3.36,0.69c-1.53,0-2.85-0.39-3.6-1.26c-0.93-1.05-0.96-2.28-0.96-4.47l0-6.69l-1.41,0c-0.57,0-0.66-0.12-0.66-0.75l0-1.14c0-0.36,0.18-0.6,0.54-0.6l1.53,0l0-3.27c0-0.51,0.27-0.66,0.75-0.72l2.16-0.27l0.15,0c0.39,0,0.57,0.21,0.57,0.66l0,3.6l3.39,0c0.36,0,0.57,0.12,0.57,0.51l0,1.41c0,0.36-0.24,0.57-0.6,0.57l-3.36,0l0,6.87c0,0.9,0.06,1.56,0.39,2.04c0.27,0.39,0.69,0.63,1.41,0.63c0.75,0,1.38-0.18,1.92-0.36c0.12-0.03,0.21-0.06,0.3-0.06c0.21,0,0.33,0.12,0.39,0.36l0.3,1.5c0.03,0.09,0.03,0.12,0.03,0.18z M124.295,34.88c0,0.72-0.24,0.87-0.99,0.87l-8.79,0c0.24,2.31,1.92,3.9,4.29,3.9c1.26,0,2.58-0.3,3.69-0.72c0.12-0.03,0.21-0.09,0.33-0.09c0.21,0,0.36,0.12,0.42,0.36l0.42,1.53c0.03,0.15,0.06,0.27,0.06,0.36c0,0.21-0.12,0.36-0.48,0.51c-1.47,0.66-3.48,0.96-5.04,0.96c-4.71,0-7.5-3-7.5-7.68c0-4.5,2.97-7.62,7.44-7.62c1.83,0,3.33,0.69,4.38,1.8c1.38,1.44,1.77,3.33,1.77,5.37l0,0.45z M120.725,33.38l0-0.33c-0.06-1.56-0.96-3-2.79-3c-1.95,0-3.12,1.56-3.36,3.33l6.15,0z"/><path fill="#ff9900" d="M149.61,41.45c0,0.54-0.21,0.75-0.72,0.75l-2.1,0c-0.54,0-0.78-0.21-0.78-0.75l0-8.22c0-1.62-0.42-2.85-2.25-2.85c-1.14,0-2.46,0.6-3.39,1.35c0.06,0.27,0.12,4.29,0.12,4.71l0,5.01c0,0.54-0.21,0.75-0.72,0.75l-1.98,0c-0.54,0-0.78-0.21-0.78-0.75l0-8.22c0-1.59-0.33-2.85-2.16-2.85c-1.17,0-2.37,0.66-3.33,1.5l0,9.57c0,0.54-0.24,0.75-0.75,0.75l-2.1,0c-0.54,0-0.78-0.21-0.78-0.75l0-13.11c0-0.48,0.27-0.69,0.72-0.69l1.95,0c0.45,0,0.72,0.15,0.75,0.57l0.03,0.75c1.23-1.08,2.85-1.71,4.41-1.71c1.83,0,3.12,0.81,3.81,1.95c1.35-1.29,3.3-1.95,5.13-1.95c2.19,0,3.57,1.08,4.2,2.25c0.57,1.11,0.72,2.43,0.72,4.35l0,7.59z M169.305,41.63c0,0.36-0.24,0.57-0.6,0.57l-1.44,0c-1.56,0-2.25-0.75-2.46-1.77l-0.06,0c-0.75,1.11-2.7,2.13-4.35,2.13c-4.23,0-6.15-3.48-6.15-7.38c0-5.19,3.12-7.92,6.48-7.92c1.59,0,3.09,0.72,3.84,1.74l0.06-0.81c0.03-0.33,0.27-0.54,0.63-0.54l2.1,0c0.39,0,0.63,0.21,0.63,0.66l0,10.41c0,0.42,0.06,0.72,0.18,0.87c0.09,0.09,0.21,0.12,0.36,0.12l0.24,0c0.36,0,0.54,0.12,0.54,0.51l0,1.41z M164.355,37.55l0-5.79c-0.6-0.87-1.83-1.53-2.97-1.53c-1.83,0-3.39,1.56-3.39,4.71c0,2.52,0.96,4.65,3.18,4.65c1.47,0,2.73-1.11,3.18-2.04z M165.405,22.85c0,0.18-0.12,0.33-0.36,0.45l-4.23,2.25c-0.21,0.12-0.36,0.18-0.51,0.18c-0.18,0-0.33-0.12-0.51-0.36l-0.36-0.51c-0.09-0.15-0.15-0.24-0.15-0.36c0-0.15,0.09-0.3,0.36-0.51l3.81-2.7c0.24-0.15,0.39-0.27,0.54-0.27c0.18,0,0.33,0.12,0.51,0.39l0.72,1.02c0.12,0.15,0.18,0.3,0.18,0.42z M186.66,41.21c0,4.86-2.07,7.56-7.11,7.56c-1.47,0-3-0.3-4.44-0.93c-0.33-0.15-0.48-0.33-0.48-0.6c0-0.15,0.06-0.27,0.09-0.39l0.42-1.32c0.12-0.33,0.24-0.54,0.45-0.54c0.15,0,0.3,0.06,0.45,0.12c1.08,0.45,2.31,0.78,3.36,0.78c3,0,3.63-1.59,3.63-3.99l0-1.2c-0.9,0.87-2.58,1.53-3.9,1.53c-1.86,0-3.36-0.6-4.41-1.71c-1.26-1.29-1.89-3.24-1.89-5.43c0-4.02,2.34-7.8,6.69-7.8c0.72,0,1.47,0.18,2.16,0.48c0.57,0.24,1.17,0.69,1.53,1.2l0.06-0.78c0.03-0.39,0.24-0.54,0.69-0.54l1.98,0c0.54,0,0.72,0.21,0.72,0.72l0,12.84z M183.03,37.85l0-6.18c-0.6-0.81-1.77-1.47-2.91-1.47c-0.93,0-1.68,0.36-2.22,0.87c-0.93,0.9-1.29,2.43-1.29,3.81c0,1.32,0.3,2.73,1.2,3.6c0.54,0.54,1.32,0.81,2.13,0.81c1.17,0,2.49-0.69,3.09-1.44z M196.275,23.84c0,1.17-1.02,1.89-2.01,1.89s-2.04-0.66-2.04-1.86s0.99-1.92,2.04-1.92c1.02,0,2.01,0.69,2.01,1.89z M196.095,41.45c0,0.54-0.24,0.75-0.75,0.75l-2.1,0c-0.54,0-0.78-0.21-0.78-0.75l0-13.11c0-0.51,0.3-0.69,0.78-0.69l2.1,0c0.48,0,0.75,0.15,0.75,0.69l0,13.11z M212.79,41.18c0,0.24-0.15,0.36-0.42,0.48c-1.44,0.66-2.76,0.9-4.35,0.9c-4.62,0-7.17-2.88-7.17-7.5c0-4.65,2.79-7.8,7.44-7.8c1.35,0,2.76,0.27,4.02,0.84c0.24,0.12,0.36,0.18,0.36,0.42c0,0.09-0.03,0.27-0.06,0.36l-0.39,1.59c-0.06,0.27-0.18,0.42-0.36,0.42c-0.09,0-0.21-0.06-0.33-0.12c-0.87-0.36-1.83-0.66-2.88-0.66c-2.58,0-4.05,1.83-4.05,4.77c0,2.88,1.32,4.86,3.9,4.86c1.29,0,2.1-0.24,3.15-0.66c0.09-0.03,0.21-0.09,0.3-0.09c0.18,0,0.3,0.15,0.36,0.36l0.39,1.32c0.06,0.21,0.09,0.39,0.09,0.51z M230.625,34.91c0,4.32-2.64,7.65-7.32,7.65c-4.89,0-7.14-3.3-7.14-7.68c0-4.32,2.64-7.62,7.32-7.62c4.89,0,7.14,3.24,7.14,7.65z M226.875,34.91c0-2.46-0.78-4.8-3.42-4.8c-2.67,0-3.54,2.31-3.54,4.71c0,2.46,0.75,4.89,3.42,4.89c2.64,0,3.54-2.34,3.54-4.8z M245.01,37.91c0,3.15-2.73,4.65-5.79,4.65c-1.56,0-3.27-0.45-4.62-1.05c-0.27-0.12-0.36-0.3-0.36-0.48c0-0.09,0.03-0.18,0.06-0.27l0.48-1.53c0.09-0.3,0.24-0.42,0.42-0.42c0.09,0,0.18,0,0.33,0.06c1.32,0.54,2.73,0.93,3.78,0.93c1.32,0,2.22-0.6,2.22-1.59c0-0.84-0.57-1.29-1.8-1.77l-2.37-0.9c-1.71-0.63-3.09-1.95-3.09-3.99c0-2.94,2.76-4.29,5.43-4.29c1.44,0,2.85,0.24,4.35,0.9c0.24,0.12,0.36,0.24,0.36,0.42c0,0.09-0.03,0.18-0.06,0.3l-0.51,1.62c-0.06,0.21-0.21,0.33-0.42,0.33c-0.09,0-0.21-0.03-0.3-0.06c-0.99-0.39-2.28-0.72-3.24-0.72c-1.26,0-1.89,0.69-1.89,1.38c0,0.66,0.33,1.08,1.47,1.53l2.7,1.11c1.59,0.66,2.85,1.89,2.85,3.84z"/></svg>
